<?xml version="1.0" encoding="UTF-8" standalone="no"?>
<!-- Created with Inkscape (http://www.inkscape.org/) -->

<svg
   xmlns:dc="http://purl.org/dc/elements/1.1/"
   xmlns:cc="http://creativecommons.org/ns#"
   xmlns:rdf="http://www.w3.org/1999/02/22-rdf-syntax-ns#"
   xmlns:svg="http://www.w3.org/2000/svg"
   xmlns="http://www.w3.org/2000/svg"
   xmlns:sodipodi="http://sodipodi.sourceforge.net/DTD/sodipodi-0.dtd"
   xmlns:inkscape="http://www.inkscape.org/namespaces/inkscape"
   id="svg2"
   version="1.1"
   inkscape:version="0.48.4 r9939"
   width="1000"
   height="1000"
   xml:space="preserve"
   sodipodi:docname="29.ai"><metadata
     id="metadata8"><rdf:RDF><cc:Work
         rdf:about=""><dc:format>image/svg+xml</dc:format><dc:type
           rdf:resource="http://purl.org/dc/dcmitype/StillImage" /><dc:title></dc:title></cc:Work></rdf:RDF></metadata><defs
     id="defs6"><clipPath
       clipPathUnits="userSpaceOnUse"
       id="clipPath18"><path
         d="M 0,800 800,800 800,0 0,0 0,800 z"
         id="path20" /></clipPath><clipPath
       clipPathUnits="userSpaceOnUse"
       id="clipPath38"><path
         d="m 619.532,143.773 c 0,-46.945 38.056,-85.001 85.001,-85.001 l 0,0 c 46.944,0 84.999,38.056 84.999,85.001 l 0,0 c 0,46.944 -38.055,85.001 -84.999,85.001 l 0,0 c -46.945,0 -85.001,-38.057 -85.001,-85.001"
         id="path40" /></clipPath><clipPath
       clipPathUnits="userSpaceOnUse"
       id="clipPath102"><path
         d="M 0,800 800,800 800,0 0,0 0,800 z"
         id="path104" /></clipPath><clipPath
       clipPathUnits="userSpaceOnUse"
       id="clipPath118"><path
         d="m 10.47,393.123 c 0,-46.943 38.055,-85 84.999,-85 l 0,0 c 46.945,0 85.001,38.057 85.001,85 l 0,0 c 0,46.945 -38.056,85.001 -85.001,85.001 l 0,0 c -46.944,0 -84.999,-38.056 -84.999,-85.001"
         id="path120" /></clipPath><clipPath
       clipPathUnits="userSpaceOnUse"
       id="clipPath184"><path
         d="M 0,800 800,800 800,0 0,0 0,800 z"
         id="path186" /></clipPath><clipPath
       clipPathUnits="userSpaceOnUse"
       id="clipPath200"><path
         d="m 213.488,393.124 c 0,-46.944 38.056,-85.001 85.001,-85.001 l 0,0 c 46.944,0 84.999,38.057 84.999,85.001 l 0,0 c 0,46.944 -38.055,85 -84.999,85 l 0,0 c -46.945,0 -85.001,-38.056 -85.001,-85"
         id="path202" /></clipPath><clipPath
       clipPathUnits="userSpaceOnUse"
       id="clipPath282"><path
         d="M 0,800 800,800 800,0 0,0 0,800 z"
         id="path284" /></clipPath><clipPath
       clipPathUnits="userSpaceOnUse"
       id="clipPath298"><path
         d="m 619.533,656.229 c 0,-46.945 38.055,-85.002 85,-85.002 l 0,0 c 46.944,0 85,38.057 85,85.002 l 0,0 c 0,46.944 -38.056,84.999 -85,84.999 l 0,0 c -46.945,0 -85,-38.055 -85,-84.999"
         id="path300" /></clipPath><clipPath
       clipPathUnits="userSpaceOnUse"
       id="clipPath348"><path
         d="M 0,800 800,800 800,0 0,0 0,800 z"
         id="path350" /></clipPath><clipPath
       clipPathUnits="userSpaceOnUse"
       id="clipPath364"><path
         d="m 619.532,404.134 c 0,-46.945 38.056,-85.001 85.001,-85.001 l 0,0 c 46.944,0 84.999,38.056 84.999,85.001 l 0,0 c 0,46.944 -38.055,85 -84.999,85 l 0,0 c -46.945,0 -85.001,-38.056 -85.001,-85"
         id="path366" /></clipPath><clipPath
       clipPathUnits="userSpaceOnUse"
       id="clipPath442"><path
         d="M 0,800 800,800 800,0 0,0 0,800 z"
         id="path444" /></clipPath><clipPath
       clipPathUnits="userSpaceOnUse"
       id="clipPath458"><path
         d="m 416.512,143.773 c 0,-46.944 38.055,-85 85,-85 l 0,0 c 46.944,0 85,38.056 85,85 l 0,0 c 0,46.945 -38.056,85.001 -85,85.001 l 0,0 c -46.945,0 -85,-38.056 -85,-85.001"
         id="path460" /></clipPath><clipPath
       clipPathUnits="userSpaceOnUse"
       id="clipPath504"><path
         d="M 0,800 800,800 800,0 0,0 0,800 z"
         id="path506" /></clipPath><clipPath
       clipPathUnits="userSpaceOnUse"
       id="clipPath520"><path
         d="m 213.49,143.773 c 0,-46.943 38.055,-84.999 85,-84.999 l 0,0 c 46.944,0 85,38.056 85,84.999 l 0,0 c 0,46.946 -38.056,85.002 -85,85.002 l 0,0 c -46.945,0 -85,-38.056 -85,-85.002"
         id="path522" /></clipPath><clipPath
       clipPathUnits="userSpaceOnUse"
       id="clipPath588"><path
         d="M 0,800 800,800 800,0 0,0 0,800 z"
         id="path590" /></clipPath><clipPath
       clipPathUnits="userSpaceOnUse"
       id="clipPath604"><path
         d="m 416.512,404.134 c 0,-46.945 38.055,-85.001 85,-85.001 l 0,0 c 46.944,0 85,38.056 85,85.001 l 0,0 c 0,46.944 -38.056,85 -85,85 l 0,0 c -46.945,0 -85,-38.056 -85,-85"
         id="path606" /></clipPath><clipPath
       clipPathUnits="userSpaceOnUse"
       id="clipPath668"><path
         d="M 0,800 800,800 800,0 0,0 0,800 z"
         id="path670" /></clipPath><clipPath
       clipPathUnits="userSpaceOnUse"
       id="clipPath684"><path
         d="m 416.51,653.483 c 0,-46.945 38.055,-85.002 85,-85.002 l 0,0 c 46.944,0 85,38.057 85,85.002 l 0,0 c 0,46.944 -38.056,85 -85,85 l 0,0 c -46.945,0 -85,-38.056 -85,-85"
         id="path686" /></clipPath><clipPath
       clipPathUnits="userSpaceOnUse"
       id="clipPath752"><path
         d="M 0,800 800,800 800,0 0,0 0,800 z"
         id="path754" /></clipPath><clipPath
       clipPathUnits="userSpaceOnUse"
       id="clipPath768"><path
         d="m 213.489,656.227 c 0,-46.945 38.055,-85.002 85,-85.002 l 0,0 c 46.945,0 84.999,38.057 84.999,85.002 l 0,0 c 0,46.944 -38.054,85 -84.999,85 l 0,0 c -46.945,0 -85,-38.056 -85,-85"
         id="path770" /></clipPath><clipPath
       clipPathUnits="userSpaceOnUse"
       id="clipPath840"><path
         d="M 0,800 800,800 800,0 0,0 0,800 z"
         id="path842" /></clipPath><clipPath
       clipPathUnits="userSpaceOnUse"
       id="clipPath856"><path
         d="m 10.47,143.773 c 0,-46.945 38.054,-85.001 84.999,-85.001 l 0,0 c 46.945,0 85.001,38.056 85.001,85.001 l 0,0 c 0,46.945 -38.056,85.001 -85.001,85.001 l 0,0 c -46.945,0 -84.999,-38.056 -84.999,-85.001"
         id="path858" /></clipPath><clipPath
       clipPathUnits="userSpaceOnUse"
       id="clipPath928"><path
         d="M 0,800 800,800 800,0 0,0 0,800 z"
         id="path930" /></clipPath><clipPath
       clipPathUnits="userSpaceOnUse"
       id="clipPath944"><path
         d="m 10.471,656.227 c 0,-46.945 38.054,-85.001 84.998,-85.001 l 0,0 c 46.944,0 85,38.056 85,85.001 l 0,0 c 0,46.944 -38.056,85 -85,85 l 0,0 c -46.944,0 -84.998,-38.056 -84.998,-85"
         id="path946" /></clipPath><clipPath
       clipPathUnits="userSpaceOnUse"
       id="clipPath1020"><path
         d="M 0,800 800,800 800,0 0,0 0,800 z"
         id="path1022" /></clipPath></defs><sodipodi:namedview
     pagecolor="#ffffff"
     bordercolor="#666666"
     borderopacity="1"
     objecttolerance="10"
     gridtolerance="10"
     guidetolerance="10"
     inkscape:pageopacity="0"
     inkscape:pageshadow="2"
     inkscape:window-width="1366"
     inkscape:window-height="667"
     id="namedview4"
     showgrid="false"
     inkscape:zoom="0.45079688"
     inkscape:cx="500"
     inkscape:cy="601.98999"
     inkscape:window-x="0"
     inkscape:window-y="28"
     inkscape:window-maximized="1"
     inkscape:current-layer="g10" /><g
     id="g10"
     inkscape:groupmode="layer"
     inkscape:label="29"
     transform="matrix(1.25,0,0,-1.25,0,1000)"><g
       id="g98"
       transform="matrix(4.695482,0,0,4.6954147,-47.564133,-1447.4288)"><g
         id="g100"
         clip-path="url(#clipPath102)"><g
           id="g106"
           transform="translate(180.4668,393.1221)"><path
             d="m 0,0 c 0,46.945 -38.055,85.001 -84.997,85.001 -46.944,0 -85,-38.056 -85,-85.001 0,-46.942 38.056,-84.997 85,-84.997 C -38.055,-84.997 0,-46.942 0,0"
             style="fill:#f6a100;fill-opacity:1;fill-rule:nonzero;stroke:none"
             id="path108"
             inkscape:connector-curvature="0" /></g><g
           id="g110"
           transform="translate(180.4668,393.1221)"><path
             d="m 0,0 c 0,46.945 -38.055,85.001 -84.997,85.001 l 0,-169.998 C -38.055,-84.997 0,-46.942 0,0"
             style="fill:#ed9a00;fill-opacity:1;fill-rule:nonzero;stroke:none"
             id="path112"
             inkscape:connector-curvature="0" /></g></g></g><g
       id="g114"
       transform="matrix(4.695482,0,0,4.6954147,-47.564133,-1447.4288)"><g
         id="g116"
         clip-path="url(#clipPath118)"><path
           d="m 107.917,344.391 -24.893,0 0,27.295 24.893,0 0,-27.295 z"
           style="fill:#d9a78c;fill-opacity:1;fill-rule:nonzero;stroke:none"
           id="path122"
           inkscape:connector-curvature="0" /><g
           id="g124"
           transform="translate(80.0029,355.4219)"><path
             d="m 0,0 c 0,0 -23.667,-3.461 -27.163,-7.102 -3.043,-3.169 -9.371,-33.533 -10.835,-40.197 l 53.464,0 0,46.012 L 0,0 z"
             style="fill:#c0d0d8;fill-opacity:1;fill-rule:nonzero;stroke:none"
             id="path126"
             inkscape:connector-curvature="0" /></g><g
           id="g128"
           transform="translate(110.9341,355.4219)"><path
             d="m 0,0 c 0,0 23.669,-3.461 27.164,-7.102 3.043,-3.169 9.371,-33.533 10.835,-40.197 l -53.464,0 0,46.012 L 0,0 z"
             style="fill:#a7bdc8;fill-opacity:1;fill-rule:nonzero;stroke:none"
             id="path130"
             inkscape:connector-curvature="0" /></g><g
           id="g132"
           transform="translate(93.8633,349.627)"><path
             d="m 0,0 -3.149,-32.416 4.755,-8.967 4.757,8.967 L 3.213,0 0,0 z"
             style="fill:#14a89a;fill-opacity:1;fill-rule:nonzero;stroke:none"
             id="path134"
             inkscape:connector-curvature="0" /></g><g
           id="g136"
           transform="translate(99.7188,349.8965)"><path
             d="M 0,0 -4.249,-4.248 -8.498,0 -4.249,4.248 0,0 z"
             style="fill:#14a89a;fill-opacity:1;fill-rule:nonzero;stroke:none"
             id="path138"
             inkscape:connector-curvature="0" /></g><g
           id="g140"
           transform="translate(95.4692,449.7891)"><path
             d="m 0,0 c 12.086,0 31.2,-6.87 31.2,-39.066 0,-18.59 -6.061,-30.768 -8.701,-34.137 -2.43,-3.1 -16.09,-9.703 -22.499,-9.703 L 0,0 z"
             style="fill:#eac0a7;fill-opacity:1;fill-rule:nonzero;stroke:none"
             id="path142"
             inkscape:connector-curvature="0" /></g><g
           id="g144"
           transform="translate(132.6812,403.0459)"><path
             d="M 0,0 C 0.533,5.145 -1.918,9.709 -5.474,10.197 -9.031,10.685 -12.345,6.91 -12.878,1.766 -13.412,-3.377 -10.96,-7.942 -7.403,-8.43 -3.848,-8.917 -0.534,-5.143 0,0"
             style="fill:#eac0a7;fill-opacity:1;fill-rule:nonzero;stroke:none"
             id="path146"
             inkscape:connector-curvature="0" /></g><g
           id="g148"
           transform="translate(95.4697,449.7891)"><path
             d="m 0,0 c -12.086,0 -31.199,-6.87 -31.199,-39.066 0,-18.59 6.059,-30.768 8.7,-34.137 2.431,-3.1 16.09,-9.703 22.499,-9.703 L 0,0 z"
             style="fill:#f2d7bc;fill-opacity:1;fill-rule:nonzero;stroke:none"
             id="path150"
             inkscape:connector-curvature="0" /></g><g
           id="g152"
           transform="translate(58.2578,403.0459)"><path
             d="M 0,0 C -0.533,5.145 1.918,9.709 5.474,10.197 9.031,10.685 12.345,6.91 12.878,1.766 13.412,-3.377 10.96,-7.942 7.404,-8.43 3.848,-8.917 0.533,-5.143 0,0"
             style="fill:#f2d7bc;fill-opacity:1;fill-rule:nonzero;stroke:none"
             id="path154"
             inkscape:connector-curvature="0" /></g><g
           id="g156"
           transform="translate(95.4688,354.1348)"><path
             d="M 0,0 -12.637,5.082 -15.75,1.92 -9.462,-12.023 0,0 z"
             style="fill:#ffffff;fill-opacity:1;fill-rule:nonzero;stroke:none"
             id="path158"
             inkscape:connector-curvature="0" /></g><g
           id="g160"
           transform="translate(95.4688,354.1348)"><path
             d="M 0,0 12.638,5.082 15.751,1.92 9.462,-12.023 0,0 z"
             style="fill:#ffffff;fill-opacity:1;fill-rule:nonzero;stroke:none"
             id="path162"
             inkscape:connector-curvature="0" /></g><path
           d="m 83.858,318.5 -15.771,0 0,3.479 15.771,0 0,-3.479 z"
           style="fill:#7f97a3;fill-opacity:1;fill-rule:nonzero;stroke:none"
           id="path164"
           inkscape:connector-curvature="0" /><path
           d="m 122.862,318.5 -15.771,0 0,3.479 15.771,0 0,-3.479 z"
           style="fill:#7f97a3;fill-opacity:1;fill-rule:nonzero;stroke:none"
           id="path166"
           inkscape:connector-curvature="0" /><g
           id="g168"
           transform="translate(68.4238,402.4814)"><path
             d="m 0,0 2.155,0 c 0,0 -1.31,8.385 2.533,11.092 l 0,5.415 c 0,0 -1.485,0.175 -1.485,6.55 0,6.376 7.598,10.918 23.843,10.918 l 0,19.563 c 0,0 -32.111,-3.464 -32.111,-26.768 l 0,-16.028 c 0,0 2.342,0.415 4.017,-0.99 C 0.757,8.238 0,0 0,0"
             style="fill:#8b5f3c;fill-opacity:1;fill-rule:nonzero;stroke:none"
             id="path170"
             inkscape:connector-curvature="0" /></g><g
           id="g172"
           transform="translate(122.21,402.4814)"><path
             d="m 0,0 -2.154,0 c 0,0 1.31,8.385 -2.534,11.092 l 0,5.415 c 0,0 1.486,0.175 1.486,6.55 0,6.376 -7.599,10.918 -23.843,10.918 l 0,19.563 c 0,0 32.11,-3.464 32.11,-26.768 l 0,-16.028 c 0,0 -2.342,0.415 -4.017,-0.99 C -0.757,8.238 0,0 0,0"
             style="fill:#8b5f3c;fill-opacity:1;fill-rule:nonzero;stroke:none"
             id="path174"
             inkscape:connector-curvature="0" /></g><g
           id="g176"
           transform="translate(95.4697,380.748)"><path
             d="m 0,0 c 5.633,0 10.2,1.861 10.2,4.156 l -20.4,0 C -10.2,1.861 -5.633,0 0,0"
             style="fill:#ffffff;fill-opacity:1;fill-rule:nonzero;stroke:none"
             id="path178"
             inkscape:connector-curvature="0" /></g></g></g></g></svg>