<?xml version="1.0" encoding="UTF-8" standalone="no"?>
<!-- Created with Inkscape (http://www.inkscape.org/) -->

<svg
   xmlns:dc="http://purl.org/dc/elements/1.1/"
   xmlns:cc="http://creativecommons.org/ns#"
   xmlns:rdf="http://www.w3.org/1999/02/22-rdf-syntax-ns#"
   xmlns:svg="http://www.w3.org/2000/svg"
   xmlns="http://www.w3.org/2000/svg"
   xmlns:sodipodi="http://sodipodi.sourceforge.net/DTD/sodipodi-0.dtd"
   xmlns:inkscape="http://www.inkscape.org/namespaces/inkscape"
   id="svg2"
   version="1.1"
   inkscape:version="0.48.4 r9939"
   width="1000"
   height="1000"
   xml:space="preserve"
   sodipodi:docname="29_1.ai.svg"><metadata
     id="metadata8"><rdf:RDF><cc:Work
         rdf:about=""><dc:format>image/svg+xml</dc:format><dc:type
           rdf:resource="http://purl.org/dc/dcmitype/StillImage" /><dc:title></dc:title></cc:Work></rdf:RDF></metadata><defs
     id="defs6"><clipPath
       clipPathUnits="userSpaceOnUse"
       id="clipPath18"><path
         d="M 0,800 800,800 800,0 0,0 0,800 z"
         id="path20" /></clipPath><clipPath
       clipPathUnits="userSpaceOnUse"
       id="clipPath38"><path
         d="m 619.532,143.773 c 0,-46.945 38.056,-85.001 85.001,-85.001 l 0,0 c 46.944,0 84.999,38.056 84.999,85.001 l 0,0 c 0,46.944 -38.055,85.001 -84.999,85.001 l 0,0 c -46.945,0 -85.001,-38.057 -85.001,-85.001"
         id="path40" /></clipPath><clipPath
       clipPathUnits="userSpaceOnUse"
       id="clipPath102"><path
         d="M 0,800 800,800 800,0 0,0 0,800 z"
         id="path104" /></clipPath><clipPath
       clipPathUnits="userSpaceOnUse"
       id="clipPath118"><path
         d="m 10.47,393.123 c 0,-46.943 38.055,-85 84.999,-85 l 0,0 c 46.945,0 85.001,38.057 85.001,85 l 0,0 c 0,46.945 -38.056,85.001 -85.001,85.001 l 0,0 c -46.944,0 -84.999,-38.056 -84.999,-85.001"
         id="path120" /></clipPath><clipPath
       clipPathUnits="userSpaceOnUse"
       id="clipPath184"><path
         d="M 0,800 800,800 800,0 0,0 0,800 z"
         id="path186" /></clipPath><clipPath
       clipPathUnits="userSpaceOnUse"
       id="clipPath200"><path
         d="m 213.488,393.124 c 0,-46.944 38.056,-85.001 85.001,-85.001 l 0,0 c 46.944,0 84.999,38.057 84.999,85.001 l 0,0 c 0,46.944 -38.055,85 -84.999,85 l 0,0 c -46.945,0 -85.001,-38.056 -85.001,-85"
         id="path202" /></clipPath><clipPath
       clipPathUnits="userSpaceOnUse"
       id="clipPath282"><path
         d="M 0,800 800,800 800,0 0,0 0,800 z"
         id="path284" /></clipPath><clipPath
       clipPathUnits="userSpaceOnUse"
       id="clipPath298"><path
         d="m 619.533,656.229 c 0,-46.945 38.055,-85.002 85,-85.002 l 0,0 c 46.944,0 85,38.057 85,85.002 l 0,0 c 0,46.944 -38.056,84.999 -85,84.999 l 0,0 c -46.945,0 -85,-38.055 -85,-84.999"
         id="path300" /></clipPath><clipPath
       clipPathUnits="userSpaceOnUse"
       id="clipPath348"><path
         d="M 0,800 800,800 800,0 0,0 0,800 z"
         id="path350" /></clipPath><clipPath
       clipPathUnits="userSpaceOnUse"
       id="clipPath364"><path
         d="m 619.532,404.134 c 0,-46.945 38.056,-85.001 85.001,-85.001 l 0,0 c 46.944,0 84.999,38.056 84.999,85.001 l 0,0 c 0,46.944 -38.055,85 -84.999,85 l 0,0 c -46.945,0 -85.001,-38.056 -85.001,-85"
         id="path366" /></clipPath><clipPath
       clipPathUnits="userSpaceOnUse"
       id="clipPath442"><path
         d="M 0,800 800,800 800,0 0,0 0,800 z"
         id="path444" /></clipPath><clipPath
       clipPathUnits="userSpaceOnUse"
       id="clipPath458"><path
         d="m 416.512,143.773 c 0,-46.944 38.055,-85 85,-85 l 0,0 c 46.944,0 85,38.056 85,85 l 0,0 c 0,46.945 -38.056,85.001 -85,85.001 l 0,0 c -46.945,0 -85,-38.056 -85,-85.001"
         id="path460" /></clipPath><clipPath
       clipPathUnits="userSpaceOnUse"
       id="clipPath504"><path
         d="M 0,800 800,800 800,0 0,0 0,800 z"
         id="path506" /></clipPath><clipPath
       clipPathUnits="userSpaceOnUse"
       id="clipPath520"><path
         d="m 213.49,143.773 c 0,-46.943 38.055,-84.999 85,-84.999 l 0,0 c 46.944,0 85,38.056 85,84.999 l 0,0 c 0,46.946 -38.056,85.002 -85,85.002 l 0,0 c -46.945,0 -85,-38.056 -85,-85.002"
         id="path522" /></clipPath><clipPath
       clipPathUnits="userSpaceOnUse"
       id="clipPath588"><path
         d="M 0,800 800,800 800,0 0,0 0,800 z"
         id="path590" /></clipPath><clipPath
       clipPathUnits="userSpaceOnUse"
       id="clipPath604"><path
         d="m 416.512,404.134 c 0,-46.945 38.055,-85.001 85,-85.001 l 0,0 c 46.944,0 85,38.056 85,85.001 l 0,0 c 0,46.944 -38.056,85 -85,85 l 0,0 c -46.945,0 -85,-38.056 -85,-85"
         id="path606" /></clipPath><clipPath
       clipPathUnits="userSpaceOnUse"
       id="clipPath668"><path
         d="M 0,800 800,800 800,0 0,0 0,800 z"
         id="path670" /></clipPath><clipPath
       clipPathUnits="userSpaceOnUse"
       id="clipPath684"><path
         d="m 416.51,653.483 c 0,-46.945 38.055,-85.002 85,-85.002 l 0,0 c 46.944,0 85,38.057 85,85.002 l 0,0 c 0,46.944 -38.056,85 -85,85 l 0,0 c -46.945,0 -85,-38.056 -85,-85"
         id="path686" /></clipPath><clipPath
       clipPathUnits="userSpaceOnUse"
       id="clipPath752"><path
         d="M 0,800 800,800 800,0 0,0 0,800 z"
         id="path754" /></clipPath><clipPath
       clipPathUnits="userSpaceOnUse"
       id="clipPath768"><path
         d="m 213.489,656.227 c 0,-46.945 38.055,-85.002 85,-85.002 l 0,0 c 46.945,0 84.999,38.057 84.999,85.002 l 0,0 c 0,46.944 -38.054,85 -84.999,85 l 0,0 c -46.945,0 -85,-38.056 -85,-85"
         id="path770" /></clipPath><clipPath
       clipPathUnits="userSpaceOnUse"
       id="clipPath840"><path
         d="M 0,800 800,800 800,0 0,0 0,800 z"
         id="path842" /></clipPath><clipPath
       clipPathUnits="userSpaceOnUse"
       id="clipPath856"><path
         d="m 10.47,143.773 c 0,-46.945 38.054,-85.001 84.999,-85.001 l 0,0 c 46.945,0 85.001,38.056 85.001,85.001 l 0,0 c 0,46.945 -38.056,85.001 -85.001,85.001 l 0,0 c -46.945,0 -84.999,-38.056 -84.999,-85.001"
         id="path858" /></clipPath><clipPath
       clipPathUnits="userSpaceOnUse"
       id="clipPath928"><path
         d="M 0,800 800,800 800,0 0,0 0,800 z"
         id="path930" /></clipPath><clipPath
       clipPathUnits="userSpaceOnUse"
       id="clipPath944"><path
         d="m 10.471,656.227 c 0,-46.945 38.054,-85.001 84.998,-85.001 l 0,0 c 46.944,0 85,38.056 85,85.001 l 0,0 c 0,46.944 -38.056,85 -85,85 l 0,0 c -46.944,0 -84.998,-38.056 -84.998,-85"
         id="path946" /></clipPath><clipPath
       clipPathUnits="userSpaceOnUse"
       id="clipPath1020"><path
         d="M 0,800 800,800 800,0 0,0 0,800 z"
         id="path1022" /></clipPath></defs><sodipodi:namedview
     pagecolor="#ffffff"
     bordercolor="#666666"
     borderopacity="1"
     objecttolerance="10"
     gridtolerance="10"
     guidetolerance="10"
     inkscape:pageopacity="0"
     inkscape:pageshadow="2"
     inkscape:window-width="1366"
     inkscape:window-height="667"
     id="namedview4"
     showgrid="false"
     inkscape:zoom="0.31876153"
     inkscape:cx="159.4737"
     inkscape:cy="415.00595"
     inkscape:window-x="0"
     inkscape:window-y="28"
     inkscape:window-maximized="1"
     inkscape:current-layer="g10" /><g
     id="g10"
     inkscape:groupmode="layer"
     inkscape:label="29"
     transform="matrix(1.25,0,0,-1.25,0,1000)"><g
       id="g924"
       transform="matrix(4.7231518,0,0,4.7231518,-47.664308,-2698.1921)"><g
         id="g926"
         clip-path="url(#clipPath928)"><g
           id="g932"
           transform="translate(180.4668,656.2256)"><path
             d="m 0,0 c 0,46.944 -38.056,85 -85,85 -46.944,0 -85,-38.056 -85,-85 0,-46.944 38.056,-85 85,-85 46.944,0 85,38.056 85,85"
             style="fill:#29a69c;fill-opacity:1;fill-rule:nonzero;stroke:none"
             id="path934"
             inkscape:connector-curvature="0" /></g><g
           id="g936"
           transform="translate(180.4668,656.2256)"><path
             d="m 0,0 c 0,46.944 -38.056,85 -85,85 l 0,-170 c 46.944,0 85,38.056 85,85"
             style="fill:#27a096;fill-opacity:1;fill-rule:nonzero;stroke:none"
             id="path938"
             inkscape:connector-curvature="0" /></g></g></g><g
       id="g940"
       transform="matrix(4.7231518,0,0,4.7231518,-47.664308,-2698.1921)"><g
         id="g942"
         clip-path="url(#clipPath944)"><g
           id="g948"
           transform="translate(132.6714,686.0967)"><path
             d="m 0,0 c 0,20.546 -16.656,37.202 -37.202,37.202 -20.546,0 -37.201,-16.656 -37.201,-37.202 0,-20.546 16.655,-37.201 37.201,-37.201 C -16.656,-37.201 0,-20.546 0,0"
             style="fill:#482b1b;fill-opacity:1;fill-rule:nonzero;stroke:none"
             id="path950"
             inkscape:connector-curvature="0" /></g><g
           id="g952"
           transform="translate(107.9165,606.4307)"><path
             d="M 0,0 -12.604,-35.355 -24.893,0 l 0,27.295 L 0,27.295 0,0 z"
             style="fill:#eac8ad;fill-opacity:1;fill-rule:nonzero;stroke:none"
             id="path954"
             inkscape:connector-curvature="0" /></g><g
           id="g956"
           transform="translate(95.4697,709.373)"><path
             d="m 0,0 c -12.086,0 -31.199,-6.87 -31.199,-39.066 0,-18.589 7.245,-27.354 9.886,-30.723 C -18.882,-72.888 -6.409,-82.907 0,-82.907 L 0,0 z"
             style="fill:#f2d7bc;fill-opacity:1;fill-rule:nonzero;stroke:none"
             id="path958"
             inkscape:connector-curvature="0" /></g><g
           id="g960"
           transform="translate(58.2578,662.6299)"><path
             d="M 0,0 C -0.533,5.145 1.919,9.709 5.474,10.197 9.031,10.685 12.345,6.91 12.878,1.766 13.412,-3.377 10.96,-7.941 7.404,-8.43 3.848,-8.917 0.533,-5.143 0,0"
             style="fill:#f2d7bc;fill-opacity:1;fill-rule:nonzero;stroke:none"
             id="path962"
             inkscape:connector-curvature="0" /></g><g
           id="g964"
           transform="translate(95.3711,709.373)"><path
             d="m 0,0 c 12.086,0 31.199,-6.87 31.199,-39.066 0,-18.589 -7.245,-27.354 -9.886,-30.723 C 18.883,-72.888 6.409,-82.907 0,-82.907 L 0,0 z"
             style="fill:#eac0a7;fill-opacity:1;fill-rule:nonzero;stroke:none"
             id="path966"
             inkscape:connector-curvature="0" /></g><g
           id="g968"
           transform="translate(132.6816,662.6299)"><path
             d="M 0,0 C 0.533,5.145 -1.919,9.709 -5.474,10.197 -9.031,10.685 -12.345,6.91 -12.878,1.766 -13.412,-3.377 -10.96,-7.941 -7.404,-8.43 -3.848,-8.917 -0.533,-5.143 0,0"
             style="fill:#eac0a7;fill-opacity:1;fill-rule:nonzero;stroke:none"
             id="path970"
             inkscape:connector-curvature="0" /></g><g
           id="g972"
           transform="translate(95.3125,571.0752)"><path
             d="m 0,0 0,34 c 0,0 -9.287,2.302 -11.333,9.823 -0.984,3.615 -0.956,6.517 -0.956,6.517 0,0 -20.305,-6.859 -24.838,-13.942 C -40.899,25.17 -41.933,0 -41.933,0 L 0,0 z"
             style="fill:#eac8ad;fill-opacity:1;fill-rule:nonzero;stroke:none"
             id="path974"
             inkscape:connector-curvature="0" /></g><g
           id="g976"
           transform="translate(95.3125,571.0752)"><path
             d="m 0,0 0,34 c 0,0 9.286,2.302 11.333,9.823 0.984,3.615 0.956,6.517 0.956,6.517 0,0 20.305,-6.859 24.837,-13.942 C 40.899,25.17 41.933,0 41.933,0 L 0,0 z"
             style="fill:#eac8ad;fill-opacity:1;fill-rule:nonzero;stroke:none"
             id="path978"
             inkscape:connector-curvature="0" /></g><g
           id="g980"
           transform="translate(95.3125,571.0752)"><path
             d="m 0,0 0,34 c 0,0 -9.287,2.302 -11.333,9.823 -0.984,3.615 -0.956,6.517 -0.956,6.517 0,0 -20.305,-6.859 -24.838,-13.942 C -40.899,25.17 -41.933,0 -41.933,0 L 0,0 z"
             style="fill:#eac8ad;fill-opacity:1;fill-rule:nonzero;stroke:none"
             id="path982"
             inkscape:connector-curvature="0" /></g><g
           id="g984"
           transform="translate(95.3125,571.0752)"><path
             d="m 0,0 0,34 c 0,0 9.286,2.302 11.333,9.823 0.984,3.615 0.956,6.517 0.956,6.517 0,0 20.305,-6.859 24.837,-13.942 C 40.899,25.17 41.933,0 41.933,0 L 0,0 z"
             style="fill:#eac8ad;fill-opacity:1;fill-rule:nonzero;stroke:none"
             id="path986"
             inkscape:connector-curvature="0" /></g><g
           id="g988"
           transform="translate(95.4697,637.8047)"><path
             d="m 0,0 c 4.711,0 8.531,2.893 8.531,6.462 l -17.062,0 C -8.531,2.893 -4.711,0 0,0"
             style="fill:#ffffff;fill-opacity:1;fill-rule:nonzero;stroke:none"
             id="path990"
             inkscape:connector-curvature="0" /></g><g
           id="g992"
           transform="translate(93.7109,718.6367)"><path
             d="m 0,0 c -22.083,0 -28.798,-19.348 -28.798,-28.258 -8.009,-11.132 0.722,-21.092 6.903,-24.591 l 0,5.478 c 0,7.199 6.845,13.865 17.126,12.756 9.214,-0.995 15.017,4.212 19.918,13.065 C 21.201,-9.694 13.648,0 0,0"
             style="fill:#482b1b;fill-opacity:1;fill-rule:nonzero;stroke:none"
             id="path994"
             inkscape:connector-curvature="0" /></g><g
           id="g996"
           transform="translate(107.9165,700.7266)"><path
             d="m 0,0 c 0,0 5.16,-20.948 19.292,-27.899 2.515,18.832 4.001,14.865 0,24.782 C 15.29,6.8 0,14.166 0,14.166 L 0,0 z"
             style="fill:#482b1b;fill-opacity:1;fill-rule:nonzero;stroke:none"
             id="path998"
             inkscape:connector-curvature="0" /></g><g
           id="g1000"
           transform="translate(132.439,607.4736)"><path
             d="M 0,0 C -3.781,5.908 -18.528,11.657 -23.318,13.402 -23.602,6.019 -29.674,0.119 -37.126,0.119 c -7.454,0 -13.525,5.9 -13.81,13.283 C -55.726,11.657 -70.472,5.908 -74.254,0 -78.026,-11.229 -79.06,-36.398 -79.06,-36.398 l 41.934,0 41.933,0 c 0,0 -1.035,25.169 -4.807,36.398"
             style="fill:#faa21c;fill-opacity:1;fill-rule:nonzero;stroke:none"
             id="path1002"
             inkscape:connector-curvature="0" /></g><g
           id="g1004"
           transform="translate(137.2456,571.0752)"><path
             d="m 0,0 c 0,0 -1.034,25.17 -4.807,36.398 -3.78,5.909 -18.527,11.658 -23.318,13.403 -0.283,-7.384 -6.355,-13.283 -13.808,-13.283 L -41.933,0 0,0 z"
             style="fill:#f68e1f;fill-opacity:1;fill-rule:nonzero;stroke:none"
             id="path1006"
             inkscape:connector-curvature="0" /></g><g
           id="g1008"
           transform="translate(76.9497,619.1143)"><path
             d="M 0,0 C 1.379,-8.901 9.075,-15.715 18.363,-15.715 27.65,-15.715 35.346,-8.901 36.725,0 34.859,0.763 33.258,1.366 32.171,1.762 31.888,-5.622 25.815,-11.521 18.363,-11.521 10.91,-11.521 4.838,-5.622 4.554,1.762 3.468,1.366 1.867,0.763 0,0"
             style="fill:#39b54a;fill-opacity:1;fill-rule:nonzero;stroke:none"
             id="path1010"
             inkscape:connector-curvature="0" /></g><g
           id="g1012"
           transform="translate(107.9165,723.2988)"><path
             d="m 0,0 c 0,6.874 -5.573,12.446 -12.447,12.446 -6.873,0 -12.446,-5.572 -12.446,-12.446 0,-6.874 5.573,-12.447 12.446,-12.447 C -5.573,-12.447 0,-6.874 0,0"
             style="fill:#482b1b;fill-opacity:1;fill-rule:nonzero;stroke:none"
             id="path1014"
             inkscape:connector-curvature="0" /></g></g></g></g></svg>